<svg width="20" height="200" viewBox="0 0 20 200" fill="none" xmlns="http://www.w3.org/2000/svg">
<g clip-path="url(#clip0_451_107)">
<path d="M11.1809 198.629C10.3695 198.629 9.59932 198.581 8.87027 198.485C8.14122 198.388 7.51213 198.278 6.98298 198.152C6.45383 198.027 5.93644 197.849 5.43082 197.618C4.92519 197.387 4.53127 197.204 4.24905 197.07C3.96684 196.935 3.66111 196.733 3.33186 196.463C3.00262 196.194 2.80272 196.035 2.73216 195.987C2.66161 195.939 2.53814 195.818 2.36176 195.626V195.438V195.381C2.36176 195.246 2.41468 195.178 2.52051 195.178C2.55578 195.178 2.67925 195.26 2.89091 195.424C3.10257 195.587 3.41418 195.785 3.82574 196.016C4.23729 196.247 4.74292 196.483 5.34262 196.723C5.94232 196.964 6.75368 197.166 7.7767 197.33C8.79972 197.493 9.93445 197.575 11.1809 197.575C12.4273 197.575 13.5562 197.493 14.5674 197.33C15.5787 197.166 16.3959 196.969 17.0191 196.738C17.6424 196.507 18.148 196.271 18.536 196.03C18.9241 195.79 19.2357 195.587 19.4709 195.424C19.706 195.26 19.8295 195.178 19.8413 195.178C19.9471 195.178 20 195.251 20 195.395V195.438V195.626L19.5767 196.03C18.5772 196.935 17.3307 197.594 15.8374 198.008C14.344 198.422 12.7918 198.629 11.1809 198.629Z" fill="#5EC6C7"/>
<path d="M12.8213 193.893C11.6336 193.893 10.5048 193.528 9.43472 192.796C8.36466 192.065 7.82376 191.242 7.812 190.327C7.812 189.837 8.10009 189.403 8.67627 189.028C8.32351 188.874 8.14713 188.653 8.14713 188.364C8.14713 188.239 8.19416 188.128 8.28823 188.032C8.3823 187.936 8.49989 187.888 8.641 187.888C8.79386 187.888 9.73457 188.066 11.4631 188.422C13.1917 188.778 14.1676 188.961 14.3911 188.97C14.685 188.97 14.8791 188.937 14.9731 188.869C15.0672 188.802 15.1201 188.701 15.1319 188.566C15.1201 188.479 15.0672 188.383 14.9731 188.277C14.7379 188.075 14.1735 187.878 13.2799 187.685C13.0447 187.628 12.9212 187.58 12.9095 187.541C12.8977 187.522 12.8918 187.474 12.8918 187.397V187.339C12.8918 187.156 12.9447 187.065 13.0506 187.065C13.1211 187.065 13.2799 187.089 13.5268 187.137C13.7737 187.185 14.0912 187.281 14.4793 187.426C14.8673 187.57 15.1613 187.724 15.3612 187.888C15.514 188.013 15.6375 188.167 15.7316 188.35C15.7551 188.427 15.7668 188.542 15.7668 188.696C15.7668 189.023 15.6787 189.298 15.5023 189.519C15.3259 189.74 15.1436 189.885 14.9555 189.952L14.6909 190.039C14.6792 190.048 14.685 190.068 14.7086 190.096C14.7321 190.116 14.7556 190.135 14.7791 190.154C15.4376 190.722 15.7668 191.3 15.7668 191.887C15.7668 192.416 15.5317 192.883 15.0613 193.287C14.591 193.691 13.8443 193.893 12.8213 193.893ZM9.80512 189.302C9.73457 189.302 9.60522 189.326 9.41708 189.375C9.22894 189.423 9.02316 189.533 8.79974 189.707C8.57632 189.88 8.45873 190.101 8.44698 190.371C8.44698 190.708 8.62924 191.03 8.99376 191.338C9.35829 191.646 9.83452 191.887 10.4225 192.06C11.3514 192.339 12.3156 192.536 13.3151 192.652C13.3504 192.652 13.4151 192.652 13.5092 192.652C13.6032 192.652 13.6738 192.657 13.7208 192.666C14.25 192.666 14.6145 192.58 14.8144 192.406C15.0143 192.233 15.1201 192.026 15.1319 191.786C15.1319 191.42 14.9378 191.059 14.5498 190.703C14.1618 190.347 13.8619 190.135 13.6503 190.068C13.6032 190.048 12.9741 189.918 11.763 189.678C10.5518 189.437 9.89919 189.312 9.80512 189.302Z" fill="#5EC6C7"/>
<path d="M11.4101 182.716C11.4101 182.716 11.3337 182.716 11.1808 182.716C11.028 182.716 10.9104 182.649 10.8281 182.514V178.197H8.18235L5.53661 178.183C5.38375 178.087 5.30731 177.995 5.30731 177.909C5.30731 177.783 5.3955 177.687 5.57189 177.62H10.8281V173.318C10.9222 173.173 11.0397 173.101 11.1808 173.101C11.322 173.101 11.4395 173.173 11.5336 173.318V177.62H16.7898C16.9544 177.697 17.0367 177.783 17.0367 177.88V177.909V177.937C17.0367 178.053 16.9544 178.14 16.7898 178.197H11.5336V182.514C11.4513 182.649 11.3337 182.716 11.1808 182.716H11.4101Z" fill="#5EC6C7"/>
<path d="M4.17846 168.031C4.06087 168.031 3.92565 168.011 3.77278 167.973C3.61992 167.934 3.54349 167.877 3.54349 167.8C3.54349 167.79 3.51409 167.443 3.45529 166.76C3.3965 166.077 3.36122 165.725 3.34946 165.706C3.34946 165.591 3.40238 165.533 3.50821 165.533C3.61404 165.533 4.45479 165.697 6.03048 166.024C6.43028 166.101 6.84184 166.183 7.26515 166.269C7.68847 166.356 8.00596 166.428 8.21762 166.486L8.55275 166.543C8.58802 166.543 8.57038 166.515 8.49983 166.457C8.02948 165.985 7.7943 165.499 7.7943 164.999C7.7943 164.402 8.06475 163.921 8.60566 163.555C9.14657 163.189 9.82858 163.002 10.6517 162.992C11.9569 162.992 13.1387 163.372 14.197 164.132C15.2553 164.893 15.7844 165.711 15.7844 166.587C15.7844 167.068 15.561 167.506 15.1142 167.901C14.6673 168.295 13.9442 168.497 12.9447 168.507H12.7859C12.539 168.507 12.198 168.468 11.7629 168.391C11.3278 168.314 10.1696 168.079 8.28817 167.684C5.97168 167.203 4.74289 166.962 4.60178 166.962C4.46067 166.962 4.37836 167.145 4.35484 167.511C4.35484 167.559 4.35484 167.597 4.35484 167.626V167.698C4.35484 167.795 4.35484 167.857 4.35484 167.886C4.35484 167.915 4.33721 167.949 4.30193 167.987C4.26665 168.026 4.2255 168.04 4.17846 168.031ZM9.85798 164.234H9.75215C8.88199 164.234 8.44692 164.527 8.44692 165.114C8.44692 165.278 8.49395 165.446 8.58802 165.62C8.68209 165.793 8.80556 165.952 8.95842 166.096C9.11129 166.24 9.2524 166.365 9.38174 166.471C9.51109 166.577 9.64044 166.664 9.76978 166.731L9.91089 166.818L11.4278 167.121C12.439 167.333 13.1563 167.439 13.5796 167.439C14.1441 167.439 14.5674 167.323 14.8496 167.092C15.0377 166.938 15.1318 166.746 15.1318 166.515C15.1318 166.197 14.9437 165.875 14.5674 165.547C14.2969 165.307 13.9677 165.114 13.5796 164.97C13.1916 164.825 12.5743 164.667 11.7276 164.493C10.881 164.32 10.2578 164.234 9.85798 164.234Z" fill="#5EC6C7"/>
<path d="M2.3794 162.025L2.36176 161.967C2.36176 161.919 2.36176 161.871 2.36176 161.822V161.649L2.78508 161.245C3.78458 160.34 5.03102 159.681 6.52439 159.267C8.01776 158.853 9.56992 158.646 11.1809 158.646C11.9805 158.646 12.7507 158.694 13.4915 158.791C14.2323 158.887 14.8614 158.998 15.3788 159.123C15.8962 159.248 16.4136 159.426 16.9309 159.657C17.4483 159.888 17.8423 160.071 18.1127 160.206C18.3832 160.34 18.683 160.538 19.0123 160.797C19.3415 161.057 19.5355 161.211 19.5943 161.259C19.6531 161.308 19.7648 161.418 19.9294 161.591C19.9647 161.62 19.9882 161.64 20 161.649V161.822C20 161.899 20 161.952 20 161.981C20 162.01 19.9824 162.034 19.9471 162.053C19.9118 162.073 19.8589 162.087 19.7883 162.097C19.7766 162.087 19.7001 162.034 19.559 161.938C17.6659 160.446 14.8732 159.7 11.1809 159.7C7.48861 159.7 4.69589 160.446 2.80272 161.938C2.66161 162.034 2.58518 162.087 2.57342 162.097C2.47935 162.097 2.41468 162.073 2.3794 162.025Z" fill="#5EC6C7"/>
<path d="M2.53214 155.978C2.53214 156.162 2.46147 156.305 2.32014 156.407C2.17881 156.509 1.99592 156.564 1.77145 156.57C1.31421 156.57 0.906848 156.407 0.549368 156.081C0.191888 155.754 0.013148 155.359 0.013148 154.897C0.013148 154.658 0.0173048 154.509 0.0256183 154.447C0.12538 153.944 0.345688 153.559 0.686541 153.294C1.02739 153.029 1.39734 152.892 1.79639 152.886C2.22869 152.886 2.64852 153.001 3.05589 153.233C3.46325 153.464 3.75838 153.784 3.94127 154.192L3.96621 154.223C3.97453 154.223 3.987 154.192 4.00362 154.131C4.02025 154.07 4.05766 153.971 4.11586 153.835C4.17405 153.699 4.26134 153.57 4.37773 153.447C4.81835 152.889 5.40029 152.61 6.12356 152.61C6.78033 152.61 7.35396 152.821 7.84446 153.243C8.33495 153.665 8.5802 154.199 8.5802 154.845C8.5802 155.39 8.40146 155.859 8.04398 156.254C7.6865 156.649 7.23341 156.846 6.68472 156.846C6.45195 156.846 6.26489 156.785 6.12356 156.662C5.98223 156.54 5.90741 156.387 5.8991 156.203C5.8991 156.012 5.97392 155.856 6.12356 155.733C6.27321 155.611 6.46026 155.55 6.68472 155.55C6.77617 155.55 6.85931 155.56 6.93413 155.58C7.00895 155.601 7.07546 155.625 7.13365 155.652C7.19185 155.679 7.24173 155.716 7.2833 155.764C7.32486 155.812 7.35812 155.853 7.38306 155.887C7.408 155.921 7.42462 155.955 7.43294 155.989C7.44125 156.023 7.45372 156.05 7.47035 156.07L7.48282 156.111C7.85693 155.764 8.04398 155.342 8.04398 154.845C8.04398 154.471 7.82367 154.189 7.38306 153.998C7.10871 153.883 6.68888 153.825 6.12356 153.825H5.87416C5.08438 153.825 4.55647 154.043 4.29044 154.478C4.24056 154.58 4.21146 154.788 4.20315 155.101L4.19068 155.529L4.16574 155.56C4.1408 155.574 4.07429 155.58 3.96621 155.58C3.81657 155.58 3.74175 155.553 3.74175 155.499C3.74175 155.308 3.72096 155.111 3.6794 154.907C3.63783 154.675 3.46325 154.464 3.15565 154.274C2.84805 154.083 2.38249 153.988 1.75898 153.988H1.65922C1.18535 153.988 0.856967 154.107 0.674071 154.345C0.557682 154.495 0.499487 154.655 0.499487 154.825C0.499487 155.043 0.545211 155.244 0.63666 155.427C0.728108 155.611 0.823713 155.74 0.923475 155.815C1.02324 155.89 1.07312 155.927 1.07312 155.927V155.897C1.08143 155.876 1.08975 155.849 1.09806 155.815C1.10637 155.781 1.12716 155.747 1.16041 155.713C1.19366 155.679 1.22276 155.638 1.2477 155.591C1.27264 155.543 1.31837 155.509 1.38487 155.489C1.45138 155.468 1.51373 155.441 1.57193 155.407C1.63012 155.373 1.71326 155.363 1.82133 155.376C2.00423 155.376 2.16634 155.424 2.30767 155.519C2.449 155.614 2.52382 155.768 2.53214 155.978Z" fill="#5EC6C7"/>
<path d="M9.46992 146.629C9.31706 146.629 9.19947 146.561 9.11716 146.427V137.23C9.21123 137.086 9.32882 137.014 9.46992 137.014C9.59927 137.014 9.71098 137.081 9.80505 137.216L9.82269 141.807V146.398C9.76389 146.552 9.64631 146.629 9.46992 146.629ZM12.8917 146.629C12.7154 146.629 12.5978 146.552 12.539 146.398V137.216C12.6566 137.081 12.7742 137.014 12.8917 137.014C13.0446 137.014 13.1622 137.086 13.2445 137.23V146.427C13.1622 146.561 13.0446 146.629 12.8917 146.629Z" fill="#5EC6C7"/>
<path d="M12.8213 131.718C11.6336 131.718 10.5048 131.352 9.43472 130.621C8.36466 129.889 7.82376 129.066 7.812 128.152C7.812 127.661 8.10009 127.228 8.67627 126.853C8.32351 126.699 8.14713 126.477 8.14713 126.188C8.14713 126.063 8.19416 125.953 8.28823 125.856C8.3823 125.76 8.49989 125.712 8.641 125.712C8.79386 125.712 9.73457 125.89 11.4631 126.246C13.1917 126.602 14.1676 126.785 14.3911 126.795C14.685 126.795 14.8791 126.761 14.9731 126.694C15.0672 126.626 15.1201 126.525 15.1319 126.391C15.1201 126.304 15.0672 126.208 14.9731 126.102C14.7379 125.9 14.1735 125.702 13.2799 125.51C13.0447 125.452 12.9212 125.404 12.9095 125.365C12.8977 125.346 12.8918 125.298 12.8918 125.221V125.163C12.8918 124.981 12.9447 124.889 13.0506 124.889C13.1211 124.889 13.2799 124.913 13.5268 124.961C13.7737 125.009 14.0912 125.106 14.4793 125.25C14.8673 125.394 15.1613 125.548 15.3612 125.712C15.514 125.837 15.6375 125.991 15.7316 126.174C15.7551 126.251 15.7668 126.366 15.7668 126.52C15.7668 126.848 15.6787 127.122 15.5023 127.343C15.3259 127.565 15.1436 127.709 14.9555 127.777L14.6909 127.863C14.6792 127.873 14.685 127.892 14.7086 127.921C14.7321 127.94 14.7556 127.959 14.7791 127.979C15.4376 128.547 15.7668 129.124 15.7668 129.711C15.7668 130.24 15.5317 130.707 15.0613 131.112C14.591 131.516 13.8443 131.718 12.8213 131.718ZM9.80512 127.127C9.73457 127.127 9.60522 127.151 9.41708 127.199C9.22894 127.247 9.02316 127.358 8.79974 127.531C8.57632 127.704 8.45873 127.926 8.44698 128.195C8.44698 128.532 8.62924 128.855 8.99376 129.162C9.35829 129.47 9.83452 129.711 10.4225 129.884C11.3514 130.163 12.3156 130.361 13.3151 130.476C13.3504 130.476 13.4151 130.476 13.5092 130.476C13.6032 130.476 13.6738 130.481 13.7208 130.491C14.25 130.491 14.6145 130.404 14.8144 130.231C15.0143 130.058 15.1201 129.851 15.1319 129.61C15.1319 129.244 14.9378 128.883 14.5498 128.527C14.1618 128.171 13.8619 127.959 13.6503 127.892C13.6032 127.873 12.9741 127.743 11.763 127.502C10.5518 127.262 9.89919 127.136 9.80512 127.127Z" fill="#5EC6C7"/>
<path d="M2.53214 123.261C2.53214 123.444 2.46147 123.587 2.32014 123.689C2.17881 123.791 1.99592 123.846 1.77145 123.853C1.31421 123.853 0.906848 123.689 0.549368 123.363C0.191888 123.036 0.013148 122.641 0.013148 122.179C0.013148 121.941 0.0173048 121.791 0.0256183 121.73C0.12538 121.226 0.345688 120.842 0.686541 120.576C1.02739 120.311 1.39734 120.175 1.79639 120.168C2.22869 120.168 2.64852 120.284 3.05589 120.515C3.46325 120.746 3.75838 121.066 3.94127 121.474L3.96621 121.505C3.97453 121.505 3.987 121.474 4.00362 121.413C4.02025 121.352 4.05766 121.253 4.11586 121.117C4.17405 120.981 4.26134 120.852 4.37773 120.729C4.81835 120.171 5.40029 119.892 6.12356 119.892C6.78033 119.892 7.35396 120.103 7.84446 120.525C8.33495 120.947 8.5802 121.481 8.5802 122.128C8.5802 122.672 8.40146 123.142 8.04398 123.536C7.6865 123.931 7.23341 124.128 6.68472 124.128C6.45195 124.128 6.26489 124.067 6.12356 123.945C5.98223 123.822 5.90741 123.669 5.8991 123.485C5.8991 123.295 5.97392 123.138 6.12356 123.016C6.27321 122.893 6.46026 122.832 6.68472 122.832C6.77617 122.832 6.85931 122.842 6.93413 122.863C7.00895 122.883 7.07546 122.907 7.13365 122.934C7.19185 122.961 7.24173 122.999 7.2833 123.046C7.32486 123.094 7.35812 123.135 7.38306 123.169C7.408 123.203 7.42462 123.237 7.43294 123.271C7.44125 123.305 7.45372 123.332 7.47035 123.353L7.48282 123.393C7.85693 123.046 8.04398 122.624 8.04398 122.128C8.04398 121.753 7.82367 121.471 7.38306 121.281C7.10871 121.165 6.68888 121.107 6.12356 121.107H5.87416C5.08438 121.107 4.55647 121.325 4.29044 121.76C4.24056 121.862 4.21146 122.07 4.20315 122.383L4.19068 122.812L4.16574 122.842C4.1408 122.856 4.07429 122.863 3.96621 122.863C3.81657 122.863 3.74175 122.835 3.74175 122.781C3.74175 122.59 3.72096 122.393 3.6794 122.189C3.63783 121.958 3.46325 121.747 3.15565 121.556C2.84805 121.366 2.38249 121.27 1.75898 121.27H1.65922C1.18535 121.27 0.856967 121.389 0.674071 121.628C0.557682 121.777 0.499487 121.937 0.499487 122.107C0.499487 122.325 0.545211 122.526 0.63666 122.71C0.728108 122.893 0.823713 123.023 0.923475 123.097C1.02324 123.172 1.07312 123.21 1.07312 123.21V123.179C1.08143 123.159 1.08975 123.131 1.09806 123.097C1.10637 123.063 1.12716 123.029 1.16041 122.995C1.19366 122.961 1.22276 122.92 1.2477 122.873C1.27264 122.825 1.31837 122.791 1.38487 122.771C1.45138 122.75 1.51373 122.723 1.57193 122.689C1.63012 122.655 1.71326 122.645 1.82133 122.658C2.00423 122.658 2.16634 122.706 2.30767 122.801C2.449 122.897 2.52382 123.05 2.53214 123.261Z" fill="#5EC6C7"/>
<path d="M11.4101 114.715C11.4101 114.715 11.3337 114.715 11.1808 114.715C11.028 114.715 10.9104 114.648 10.8281 114.513V110.196H8.18235L5.53661 110.182C5.38375 110.086 5.30731 109.994 5.30731 109.907C5.30731 109.782 5.3955 109.686 5.57189 109.619H10.8281V105.316C10.9222 105.172 11.0397 105.1 11.1808 105.1C11.322 105.1 11.4395 105.172 11.5336 105.316V109.619H16.7898C16.9544 109.696 17.0367 109.782 17.0367 109.879V109.907V109.936C17.0367 110.052 16.9544 110.138 16.7898 110.196H11.5336V114.513C11.4513 114.648 11.3337 114.715 11.1808 114.715H11.4101Z" fill="#5EC6C7"/>
<path d="M7.42397 99.2485C7.42397 99.5084 7.32402 99.7105 7.12412 99.8549C6.92422 99.9993 6.66552 100.076 6.34804 100.086C5.7013 100.086 5.12512 99.8549 4.61949 99.3929C4.11386 98.9309 3.86104 98.3727 3.86104 97.7182C3.86104 97.3813 3.86692 97.1696 3.87868 97.0829C4.01979 96.3707 4.3314 95.8269 4.81351 95.4515C5.29562 95.0762 5.81889 94.8837 6.38331 94.874C6.99477 94.874 7.58859 95.0377 8.16478 95.3649C8.74096 95.6922 9.1584 96.1445 9.41709 96.722L9.45237 96.7653C9.46413 96.7653 9.48176 96.722 9.50528 96.6354C9.5288 96.5488 9.58171 96.4092 9.66403 96.2167C9.74634 96.0242 9.86981 95.8413 10.0344 95.6681C10.6576 94.8789 11.4808 94.4842 12.5038 94.4842C13.4327 94.4842 14.2441 94.7826 14.9379 95.3794C15.6316 95.9761 15.9785 96.7316 15.9785 97.646C15.9785 98.416 15.7257 99.0801 15.2201 99.6383C14.7144 100.197 14.0736 100.476 13.2975 100.476C12.9683 100.476 12.7037 100.389 12.5038 100.216C12.3039 100.043 12.1981 99.826 12.1863 99.5662C12.1863 99.2967 12.2921 99.0753 12.5038 98.902C12.7154 98.7288 12.98 98.6422 13.2975 98.6422C13.4269 98.6422 13.5444 98.6566 13.6503 98.6855C13.7561 98.7144 13.8502 98.748 13.9325 98.7865C14.0148 98.825 14.0853 98.878 14.1441 98.9454C14.2029 99.0127 14.25 99.0705 14.2852 99.1186C14.3205 99.1667 14.344 99.2149 14.3558 99.263C14.3676 99.3111 14.3852 99.3496 14.4087 99.3785L14.4264 99.4362C14.9555 98.9454 15.2201 98.3486 15.2201 97.646C15.2201 97.1166 14.9085 96.7172 14.2852 96.4477C13.8972 96.2841 13.3034 96.2023 12.5038 96.2023H12.151C11.0339 96.2023 10.2872 96.5103 9.91096 97.1263C9.84041 97.2706 9.79925 97.5642 9.78749 98.0069L9.76986 98.6133L9.73458 98.6566C9.6993 98.6759 9.60523 98.6855 9.45237 98.6855C9.24071 98.6855 9.13488 98.647 9.13488 98.57C9.13488 98.3005 9.10548 98.0214 9.04669 97.7326C8.98789 97.4054 8.74096 97.107 8.30588 96.8375C7.8708 96.568 7.21231 96.4333 6.3304 96.4333H6.18929C5.51904 96.4333 5.05457 96.6017 4.79587 96.9386C4.63125 97.1503 4.54894 97.3765 4.54894 97.6171C4.54894 97.9251 4.61361 98.2091 4.74296 98.4689C4.8723 98.7288 5.00753 98.9117 5.14864 99.0175C5.28974 99.1234 5.3603 99.1764 5.3603 99.1764V99.133C5.37205 99.1042 5.38381 99.0657 5.39557 99.0175C5.40733 98.9694 5.43673 98.9213 5.48376 98.8732C5.5308 98.825 5.57195 98.7673 5.60723 98.6999C5.64251 98.6325 5.70718 98.5844 5.80125 98.5556C5.89532 98.5267 5.98351 98.4882 6.06582 98.4401C6.14814 98.3919 6.26572 98.3775 6.41859 98.3967C6.67728 98.3967 6.90658 98.4641 7.10648 98.5989C7.30638 98.7336 7.41221 98.9502 7.42397 99.2485Z" fill="#5EC6C7"/>
<path d="M12.8213 93.387C11.6336 93.387 10.5048 93.0212 9.43472 92.2897C8.36466 91.5582 7.82376 90.7353 7.812 89.821C7.812 89.3301 8.10009 88.897 8.67627 88.5216C8.32351 88.3676 8.14713 88.1462 8.14713 87.8575C8.14713 87.7324 8.19416 87.6217 8.28823 87.5254C8.3823 87.4292 8.49989 87.3811 8.641 87.3811C8.79386 87.3811 9.73457 87.5591 11.4631 87.9152C13.1917 88.2714 14.1676 88.4542 14.3911 88.4639C14.685 88.4639 14.8791 88.4302 14.9731 88.3628C15.0672 88.2954 15.1201 88.1944 15.1319 88.0596C15.1201 87.973 15.0672 87.8767 14.9731 87.7709C14.7379 87.5687 14.1735 87.3714 13.2799 87.1789C13.0447 87.1212 12.9212 87.0731 12.9095 87.0346C12.8977 87.0153 12.8918 86.9672 12.8918 86.8902V86.8324C12.8918 86.6496 12.9447 86.5581 13.0506 86.5581C13.1211 86.5581 13.2799 86.5822 13.5268 86.6303C13.7737 86.6784 14.0912 86.7747 14.4793 86.9191C14.8673 87.0634 15.1613 87.2174 15.3612 87.3811C15.514 87.5062 15.6375 87.6602 15.7316 87.843C15.7551 87.92 15.7668 88.0355 15.7668 88.1895C15.7668 88.5168 15.6787 88.7911 15.5023 89.0125C15.3259 89.2338 15.1436 89.3782 14.9555 89.4456L14.6909 89.5322C14.6792 89.5418 14.685 89.5611 14.7086 89.59C14.7321 89.6092 14.7556 89.6285 14.7791 89.6477C15.4376 90.2156 15.7668 90.7931 15.7668 91.3802C15.7668 91.9095 15.5317 92.3764 15.0613 92.7806C14.591 93.1848 13.8443 93.387 12.8213 93.387ZM9.80512 88.7959C9.73457 88.7959 9.60522 88.82 9.41708 88.8681C9.22894 88.9162 9.02316 89.0269 8.79974 89.2002C8.57632 89.3734 8.45873 89.5948 8.44698 89.8643C8.44698 90.2011 8.62924 90.5236 8.99376 90.8316C9.35829 91.1396 9.83452 91.3802 10.4225 91.5534C11.3514 91.8325 12.3156 92.0299 13.3151 92.1454C13.3504 92.1454 13.4151 92.1454 13.5092 92.1454C13.6032 92.1454 13.6738 92.1502 13.7208 92.1598C14.25 92.1598 14.6145 92.0732 14.8144 91.8999C15.0143 91.7267 15.1201 91.5197 15.1319 91.2791C15.1319 90.9134 14.9378 90.5524 14.5498 90.1963C14.1618 89.8402 13.8619 89.6285 13.6503 89.5611C13.6032 89.5418 12.9741 89.4119 11.763 89.1713C10.5518 88.9307 9.89919 88.8055 9.80512 88.7959Z" fill="#5EC6C7"/>
<path d="M2.95618 85.1135C2.95618 85.2972 2.88136 85.4435 2.73171 85.5524C2.58207 85.6613 2.39917 85.7157 2.18302 85.7157C1.59276 85.7157 1.08149 85.5354 0.649184 85.1747C0.216882 84.8141 0.000731615 84.365 0.000731615 83.8274C0.000731615 83.2081 0.233509 82.691 0.699065 82.2759C1.16462 81.8608 1.76735 81.6498 2.50725 81.643C2.86473 81.643 3.20558 81.7111 3.52981 81.8472C3.85403 81.9833 4.13669 82.1466 4.37778 82.3371C4.61888 82.5277 4.92647 82.7999 5.30058 83.1537C5.5583 83.3987 5.94072 83.7389 6.44784 84.1744L7.14618 84.7766L7.15865 84.0009C7.15865 82.9325 7.13786 82.3644 7.0963 82.2963C7.07967 82.2487 6.70972 82.167 5.98644 82.0513H5.94903V81.643H5.98644C6.01138 81.6498 6.38965 81.6941 7.12124 81.7757C7.85282 81.8574 8.23524 81.9084 8.2685 81.9288H8.30591V85.7157H8.06897H7.91933C7.86114 85.7157 7.79879 85.6953 7.73228 85.6545C7.66577 85.6136 7.52028 85.5116 7.29582 85.3482C7.02979 85.1509 6.79701 84.9808 6.59749 84.8379C6.51435 84.7766 6.36055 84.661 6.13609 84.4908C5.91162 84.3207 5.75782 84.205 5.67469 84.1438C5.59155 84.0826 5.45438 83.9839 5.26317 83.8478C5.07196 83.7117 4.93063 83.6164 4.83918 83.562C4.74773 83.5076 4.62303 83.4293 4.46508 83.3272C4.30712 83.2252 4.1741 83.1537 4.06603 83.1129C3.95795 83.072 3.83741 83.021 3.70439 82.9598C3.57138 82.8985 3.43836 82.8543 3.30534 82.8271C3.17233 82.7999 3.04763 82.776 2.93124 82.7556C2.81485 82.7352 2.67768 82.725 2.51972 82.725C1.99597 82.725 1.54288 82.8407 1.16046 83.072C0.778043 83.3034 0.586833 83.6334 0.586833 84.0621C0.586833 84.2867 0.657497 84.484 0.798827 84.6542C0.940156 84.8243 1.07733 84.9434 1.21034 85.0114C1.34336 85.0795 1.42234 85.1135 1.44728 85.1135C1.45559 85.1135 1.45975 85.0965 1.45975 85.0624C1.45975 84.94 1.51794 84.8141 1.63433 84.6848C1.75072 84.5555 1.94193 84.4908 2.20796 84.4908C2.4158 84.4908 2.59038 84.5453 2.73171 84.6542C2.87304 84.763 2.94786 84.9161 2.95618 85.1135Z" fill="#5EC6C7"/>
<path d="M4.17846 79.3467C4.06087 79.3467 3.92565 79.3274 3.77278 79.2889C3.61992 79.2504 3.54349 79.1927 3.54349 79.1157C3.54349 79.1061 3.51409 78.7596 3.45529 78.0762C3.3965 77.3928 3.36122 77.0415 3.34946 77.0223C3.34946 76.9068 3.40238 76.849 3.50821 76.849C3.61404 76.849 4.45479 77.0127 6.03048 77.3399C6.43028 77.4169 6.84184 77.4987 7.26515 77.5853C7.68847 77.672 8.00596 77.7442 8.21762 77.8019L8.55275 77.8597C8.58802 77.8597 8.57038 77.8308 8.49983 77.773C8.02948 77.3014 7.7943 76.8154 7.7943 76.3149C7.7943 75.7181 8.06475 75.2369 8.60566 74.8711C9.14657 74.5054 9.82858 74.3177 10.6517 74.3081C11.9569 74.3081 13.1387 74.6883 14.197 75.4486C15.2553 76.209 15.7844 77.0271 15.7844 77.903C15.7844 78.3842 15.561 78.8221 15.1142 79.2168C14.6673 79.6114 13.9442 79.8135 12.9447 79.8231H12.7859C12.539 79.8231 12.198 79.7846 11.7629 79.7076C11.3278 79.6306 10.1696 79.3948 8.28817 79.0002C5.97168 78.519 4.74289 78.2783 4.60178 78.2783C4.46067 78.2783 4.37836 78.4612 4.35484 78.8269C4.35484 78.8751 4.35484 78.9136 4.35484 78.9424V79.0146C4.35484 79.1109 4.35484 79.1734 4.35484 79.2023C4.35484 79.2312 4.33721 79.2649 4.30193 79.3034C4.26665 79.3419 4.2255 79.3563 4.17846 79.3467ZM9.85798 75.5497H9.75215C8.88199 75.5497 8.44692 75.8432 8.44692 76.4304C8.44692 76.594 8.49395 76.7624 8.58802 76.9357C8.68209 77.1089 8.80556 77.2677 8.95842 77.4121C9.11129 77.5565 9.2524 77.6816 9.38174 77.7875C9.51109 77.8933 9.64044 77.98 9.76978 78.0473L9.91089 78.134L11.4278 78.4371C12.439 78.6489 13.1563 78.7548 13.5796 78.7548C14.1441 78.7548 14.5674 78.6393 14.8496 78.4083C15.0377 78.2543 15.1318 78.0618 15.1318 77.8308C15.1318 77.5132 14.9437 77.1907 14.5674 76.8635C14.2969 76.6229 13.9677 76.4304 13.5796 76.286C13.1916 76.1416 12.5743 75.9828 11.7276 75.8096C10.881 75.6363 10.2578 75.5497 9.85798 75.5497Z" fill="#5EC6C7"/>
<path d="M11.4101 70.1906C11.4101 70.1906 11.3337 70.1906 11.1808 70.1906C11.028 70.1906 10.9104 70.1232 10.8281 69.9884V65.6717H8.18235L5.53661 65.6572C5.38375 65.561 5.30731 65.4696 5.30731 65.3829C5.30731 65.2578 5.3955 65.1616 5.57189 65.0942H10.8281V60.7919C10.9222 60.6475 11.0397 60.5753 11.1808 60.5753C11.322 60.5753 11.4395 60.6475 11.5336 60.7919V65.0942H16.7898C16.9544 65.1712 17.0367 65.2578 17.0367 65.3541V65.3829V65.4118C17.0367 65.5273 16.9544 65.6139 16.7898 65.6717H11.5336V69.9884C11.4513 70.1232 11.3337 70.1906 11.1808 70.1906H11.4101Z" fill="#5EC6C7"/>
<path d="M7.42397 54.7253C7.42397 54.9852 7.32402 55.1873 7.12412 55.3317C6.92422 55.4761 6.66552 55.5531 6.34804 55.5627C5.7013 55.5627 5.12512 55.3317 4.61949 54.8697C4.11386 54.4077 3.86104 53.8495 3.86104 53.195C3.86104 52.8581 3.86692 52.6464 3.87868 52.5598C4.01979 51.8475 4.3314 51.3037 4.81351 50.9283C5.29562 50.553 5.81889 50.3605 6.38331 50.3509C6.99477 50.3509 7.58859 50.5145 8.16478 50.8417C8.74096 51.169 9.1584 51.6213 9.41709 52.1988L9.45237 52.2421C9.46413 52.2421 9.48176 52.1988 9.50528 52.1122C9.5288 52.0256 9.58171 51.886 9.66403 51.6935C9.74634 51.501 9.86981 51.3181 10.0344 51.1449C10.6576 50.3557 11.4808 49.961 12.5038 49.961C13.4327 49.961 14.2441 50.2594 14.9379 50.8562C15.6316 51.4529 15.9785 52.2084 15.9785 53.1228C15.9785 53.8928 15.7257 54.5569 15.2201 55.1152C14.7144 55.6734 14.0736 55.9525 13.2975 55.9525C12.9683 55.9525 12.7037 55.8659 12.5038 55.6926C12.3039 55.5194 12.1981 55.3028 12.1863 55.043C12.1863 54.7735 12.2921 54.5521 12.5038 54.3789C12.7154 54.2056 12.98 54.119 13.2975 54.119C13.4269 54.119 13.5444 54.1334 13.6503 54.1623C13.7561 54.1912 13.8502 54.2249 13.9325 54.2634C14.0148 54.3019 14.0853 54.3548 14.1441 54.4222C14.2029 54.4895 14.25 54.5473 14.2852 54.5954C14.3205 54.6435 14.344 54.6917 14.3558 54.7398C14.3676 54.7879 14.3852 54.8264 14.4087 54.8553L14.4264 54.913C14.9555 54.4222 15.2201 53.8254 15.2201 53.1228C15.2201 52.5934 14.9085 52.194 14.2852 51.9245C13.8972 51.7609 13.3034 51.6791 12.5038 51.6791H12.151C11.0339 51.6791 10.2872 51.9871 9.91096 52.6031C9.84041 52.7474 9.79925 53.041 9.78749 53.4837L9.76986 54.0901L9.73458 54.1334C9.6993 54.1527 9.60523 54.1623 9.45237 54.1623C9.24071 54.1623 9.13488 54.1238 9.13488 54.0468C9.13488 53.7773 9.10548 53.4982 9.04669 53.2094C8.98789 52.8822 8.74096 52.5838 8.30588 52.3143C7.8708 52.0448 7.21231 51.9101 6.3304 51.9101H6.18929C5.51904 51.9101 5.05457 52.0785 4.79587 52.4154C4.63125 52.6271 4.54894 52.8533 4.54894 53.0939C4.54894 53.4019 4.61361 53.6859 4.74296 53.9457C4.8723 54.2056 5.00753 54.3885 5.14864 54.4943C5.28974 54.6002 5.3603 54.6532 5.3603 54.6532V54.6098C5.37205 54.581 5.38381 54.5425 5.39557 54.4943C5.40733 54.4462 5.43673 54.3981 5.48376 54.35C5.5308 54.3019 5.57195 54.2441 5.60723 54.1767C5.64251 54.1094 5.70718 54.0612 5.80125 54.0324C5.89532 54.0035 5.98351 53.965 6.06582 53.9169C6.14814 53.8687 6.26572 53.8543 6.41859 53.8735C6.67728 53.8735 6.90658 53.9409 7.10648 54.0757C7.30638 54.2104 7.41221 54.427 7.42397 54.7253Z" fill="#5EC6C7"/>
<path d="M12.8213 48.8639C11.6336 48.8639 10.5048 48.4981 9.43472 47.7667C8.36466 47.0352 7.82376 46.2122 7.812 45.2979C7.812 44.807 8.10009 44.3739 8.67627 43.9985C8.32351 43.8445 8.14713 43.6232 8.14713 43.3344C8.14713 43.2093 8.19416 43.0986 8.28823 43.0024C8.3823 42.9061 8.49989 42.858 8.641 42.858C8.79386 42.858 9.73457 43.036 11.4631 43.3922C13.1917 43.7483 14.1676 43.9312 14.3911 43.9408C14.685 43.9408 14.8791 43.9071 14.9731 43.8397C15.0672 43.7723 15.1201 43.6713 15.1319 43.5365C15.1201 43.4499 15.0672 43.3537 14.9731 43.2478C14.7379 43.0457 14.1735 42.8484 13.2799 42.6559C13.0447 42.5981 12.9212 42.55 12.9095 42.5115C12.8977 42.4922 12.8918 42.4441 12.8918 42.3671V42.3094C12.8918 42.1265 12.9447 42.0351 13.0506 42.0351C13.1211 42.0351 13.2799 42.0591 13.5268 42.1072C13.7737 42.1554 14.0912 42.2516 14.4793 42.396C14.8673 42.5404 15.1613 42.6944 15.3612 42.858C15.514 42.9831 15.6375 43.1371 15.7316 43.32C15.7551 43.397 15.7668 43.5125 15.7668 43.6665C15.7668 43.9937 15.6787 44.268 15.5023 44.4894C15.3259 44.7108 15.1436 44.8551 14.9555 44.9225L14.6909 45.0091C14.6792 45.0188 14.685 45.038 14.7086 45.0669C14.7321 45.0861 14.7556 45.1054 14.7791 45.1246C15.4376 45.6925 15.7668 46.27 15.7668 46.8571C15.7668 47.3865 15.5317 47.8533 15.0613 48.2575C14.591 48.6618 13.8443 48.8639 12.8213 48.8639ZM9.80512 44.2728C9.73457 44.2728 9.60522 44.2969 9.41708 44.345C9.22894 44.3931 9.02316 44.5038 8.79974 44.6771C8.57632 44.8503 8.45873 45.0717 8.44698 45.3412C8.44698 45.6781 8.62924 46.0005 8.99376 46.3085C9.35829 46.6165 9.83452 46.8571 10.4225 47.0304C11.3514 47.3095 12.3156 47.5068 13.3151 47.6223C13.3504 47.6223 13.4151 47.6223 13.5092 47.6223C13.6032 47.6223 13.6738 47.6271 13.7208 47.6367C14.25 47.6367 14.6145 47.5501 14.8144 47.3769C15.0143 47.2036 15.1201 46.9967 15.1319 46.756C15.1319 46.3903 14.9378 46.0294 14.5498 45.6733C14.1618 45.3171 13.8619 45.1054 13.6503 45.038C13.6032 45.0188 12.9741 44.8888 11.763 44.6482C10.5518 44.4076 9.89919 44.2825 9.80512 44.2728Z" fill="#5EC6C7"/>
<path d="M4.17846 40.6491C4.06087 40.6491 3.92565 40.6298 3.77278 40.5913C3.61992 40.5528 3.54349 40.4951 3.54349 40.4181C3.54349 40.4084 3.51409 40.0619 3.45529 39.3786C3.3965 38.6952 3.36122 38.3439 3.34946 38.3247C3.34946 38.2092 3.40238 38.1514 3.50821 38.1514C3.61404 38.1514 4.45479 38.315 6.03048 38.6423C6.43028 38.7193 6.84184 38.8011 7.26515 38.8877C7.68847 38.9743 8.00596 39.0465 8.21762 39.1043L8.55275 39.162C8.58802 39.162 8.57038 39.1331 8.49983 39.0754C8.02948 38.6038 7.7943 38.1177 7.7943 37.6172C7.7943 37.0205 8.06475 36.5392 8.60566 36.1735C9.14657 35.8078 9.82858 35.6201 10.6517 35.6104C11.9569 35.6104 13.1387 35.9906 14.197 36.751C15.2553 37.5114 15.7844 38.3295 15.7844 39.2053C15.7844 39.6866 15.561 40.1245 15.1142 40.5191C14.6673 40.9137 13.9442 41.1159 12.9447 41.1255H12.7859C12.539 41.1255 12.198 41.087 11.7629 41.01C11.3278 40.933 10.1696 40.6972 8.28817 40.3026C5.97168 39.8213 4.74289 39.5807 4.60178 39.5807C4.46067 39.5807 4.37836 39.7636 4.35484 40.1293C4.35484 40.1774 4.35484 40.2159 4.35484 40.2448V40.317C4.35484 40.4132 4.35484 40.4758 4.35484 40.5047C4.35484 40.5336 4.33721 40.5672 4.30193 40.6057C4.26665 40.6442 4.2255 40.6587 4.17846 40.6491ZM9.85798 36.8521H9.75215C8.88199 36.8521 8.44692 37.1456 8.44692 37.7327C8.44692 37.8964 8.49395 38.0648 8.58802 38.238C8.68209 38.4113 8.80556 38.5701 8.95842 38.7145C9.11129 38.8588 9.2524 38.984 9.38174 39.0898C9.51109 39.1957 9.64044 39.2823 9.76978 39.3497L9.91089 39.4363L11.4278 39.7395C12.439 39.9513 13.1563 40.0571 13.5796 40.0571C14.1441 40.0571 14.5674 39.9416 14.8496 39.7106C15.0377 39.5566 15.1318 39.3641 15.1318 39.1331C15.1318 38.8155 14.9437 38.4931 14.5674 38.1658C14.2969 37.9252 13.9677 37.7327 13.5796 37.5884C13.1916 37.444 12.5743 37.2852 11.7276 37.1119C10.881 36.9387 10.2578 36.8521 9.85798 36.8521Z" fill="#5EC6C7"/>
<path d="M2.95606 34.3968C2.95606 34.5805 2.88123 34.7268 2.73159 34.8357C2.58195 34.9446 2.39905 34.999 2.1829 34.999C1.59264 34.999 1.08136 34.8187 0.649062 34.458C0.21676 34.0974 0.000609545 33.6483 0.000609545 33.1107C0.000609545 32.4915 0.233387 31.9743 0.698943 31.5592C1.1645 31.1441 1.76723 30.9332 2.50713 30.9264C2.86461 30.9264 3.20546 30.9944 3.52969 31.1305C3.85391 31.2666 4.13657 31.4299 4.37766 31.6205C4.61875 31.811 4.92635 32.0832 5.30046 32.437C5.55818 32.682 5.9406 33.0222 6.44772 33.4577L7.14605 34.06L7.15852 33.2842C7.15852 32.2159 7.13774 31.6477 7.09617 31.5796C7.07955 31.532 6.7096 31.4503 5.98632 31.3347H5.94891V30.9264H5.98632C6.01126 30.9332 6.38953 30.9774 7.12111 31.0591C7.8527 31.1407 8.23512 31.1918 8.26838 31.2122H8.30579V34.999H8.06885H7.91921C7.86101 34.999 7.79866 34.9786 7.73216 34.9378C7.66565 34.897 7.52016 34.7949 7.2957 34.6316C7.02967 34.4342 6.79689 34.2641 6.59736 34.1212C6.51423 34.06 6.36043 33.9443 6.13597 33.7742C5.9115 33.604 5.7577 33.4884 5.67457 33.4271C5.59143 33.3659 5.45426 33.2672 5.26305 33.1311C5.07184 32.995 4.93051 32.8998 4.83906 32.8453C4.74761 32.7909 4.62291 32.7126 4.46495 32.6105C4.307 32.5085 4.17398 32.437 4.06591 32.3962C3.95783 32.3554 3.83729 32.3043 3.70427 32.2431C3.57125 32.1818 3.43824 32.1376 3.30522 32.1104C3.17221 32.0832 3.0475 32.0594 2.93111 32.0389C2.81473 32.0185 2.67755 32.0083 2.5196 32.0083C1.99585 32.0083 1.54276 32.124 1.16034 32.3554C0.777921 32.5867 0.586711 32.9168 0.586711 33.3455C0.586711 33.57 0.657375 33.7674 0.798705 33.9375C0.940034 34.1076 1.07721 34.2267 1.21022 34.2947C1.34324 34.3628 1.42222 34.3968 1.44716 34.3968C1.45547 34.3968 1.45963 34.3798 1.45963 34.3458C1.45963 34.2233 1.51782 34.0974 1.63421 33.9681C1.7506 33.8388 1.94181 33.7742 2.20784 33.7742C2.41568 33.7742 2.59026 33.8286 2.73159 33.9375C2.87292 34.0464 2.94774 34.1995 2.95606 34.3968Z" fill="#5EC6C7"/>
<path d="M11.4101 25.666C11.4101 25.666 11.3337 25.666 11.1808 25.666C11.028 25.666 10.9104 25.5986 10.8281 25.4639V21.1471H8.18235L5.53661 21.1327C5.38375 21.0365 5.30731 20.945 5.30731 20.8584C5.30731 20.7333 5.3955 20.637 5.57189 20.5697H10.8281V16.2674C10.9222 16.123 11.0397 16.0508 11.1808 16.0508C11.322 16.0508 11.4395 16.123 11.5336 16.2674V20.5697H16.7898C16.9544 20.6467 17.0367 20.7333 17.0367 20.8295V20.8584V20.8873C17.0367 21.0028 16.9544 21.0894 16.7898 21.1471H11.5336V25.4639C11.4513 25.5986 11.3337 25.666 11.1808 25.666H11.4101Z" fill="#5EC6C7"/>
<path d="M4.17846 10.9804C4.06087 10.9804 3.92565 10.9612 3.77278 10.9227C3.61992 10.8842 3.54349 10.8264 3.54349 10.7494C3.54349 10.7398 3.51409 10.3933 3.45529 9.70994C3.3965 9.02657 3.36122 8.67527 3.34946 8.65602C3.34946 8.54052 3.40238 8.48277 3.50821 8.48277C3.61404 8.48277 4.45479 8.64639 6.03048 8.97364C6.43028 9.05064 6.84184 9.13245 7.26515 9.21907C7.68847 9.30569 8.00596 9.37788 8.21762 9.43563L8.55275 9.49338C8.58802 9.49338 8.57038 9.4645 8.49983 9.40676C8.02948 8.93514 7.7943 8.44908 7.7943 7.94859C7.7943 7.35185 8.06475 6.87061 8.60566 6.50486C9.14657 6.13912 9.82858 5.95143 10.6517 5.94181C11.9569 5.94181 13.1387 6.32199 14.197 7.08235C15.2553 7.84272 15.7844 8.66083 15.7844 9.53669C15.7844 10.0179 15.561 10.4559 15.1142 10.8505C14.6673 11.2451 13.9442 11.4472 12.9447 11.4568H12.7859C12.539 11.4568 12.198 11.4183 11.7629 11.3413C11.3278 11.2644 10.1696 11.0285 8.28817 10.6339C5.97168 10.1527 4.74289 9.91206 4.60178 9.91206C4.46067 9.91206 4.37836 10.0949 4.35484 10.4607C4.35484 10.5088 4.35484 10.5473 4.35484 10.5762V10.6484C4.35484 10.7446 4.35484 10.8072 4.35484 10.836C4.35484 10.8649 4.33721 10.8986 4.30193 10.9371C4.26665 10.9756 4.2255 10.99 4.17846 10.9804ZM9.85798 7.18341H9.75215C8.88199 7.18341 8.44692 7.47697 8.44692 8.06409C8.44692 8.22771 8.49395 8.39615 8.58802 8.56939C8.68209 8.74264 8.80556 8.90145 8.95842 9.04582C9.11129 9.1902 9.2524 9.31532 9.38174 9.42119C9.51109 9.52707 9.64044 9.61369 9.76978 9.68106L9.91089 9.76769L11.4278 10.0709C12.439 10.2826 13.1563 10.3885 13.5796 10.3885C14.1441 10.3885 14.5674 10.273 14.8496 10.042C15.0377 9.888 15.1318 9.6955 15.1318 9.4645C15.1318 9.14688 14.9437 8.82445 14.5674 8.49721C14.2969 8.25659 13.9677 8.06409 13.5796 7.91972C13.1916 7.77534 12.5743 7.61653 11.7276 7.44329C10.881 7.27004 10.2578 7.18341 9.85798 7.18341Z" fill="#5EC6C7"/>
<path d="M2.53214 4.54444C2.53214 4.72817 2.46147 4.87107 2.32014 4.97314C2.17881 5.07521 1.99592 5.12965 1.77145 5.13646C1.31421 5.13646 0.906848 4.97314 0.549368 4.64651C0.191888 4.31988 0.013148 3.92521 0.013148 3.46248C0.013148 3.22432 0.0173048 3.07461 0.0256183 3.01337C0.12538 2.50981 0.345688 2.12535 0.686541 1.85996C1.02739 1.59457 1.39734 1.45848 1.79639 1.45167C2.22869 1.45167 2.64852 1.56735 3.05589 1.79872C3.46325 2.03008 3.75838 2.3499 3.94127 2.75819L3.96621 2.78881C3.97453 2.78881 3.987 2.75819 4.00362 2.69695C4.02025 2.6357 4.05766 2.53703 4.11586 2.40094C4.17405 2.26484 4.26134 2.13555 4.37773 2.01307C4.81835 1.45508 5.40029 1.17608 6.12356 1.17608C6.78033 1.17608 7.35396 1.38703 7.84446 1.80892C8.33495 2.23082 8.5802 2.76499 8.5802 3.41145C8.5802 3.95583 8.40146 4.42536 8.04398 4.82003C7.6865 5.21471 7.23341 5.41205 6.68472 5.41205C6.45195 5.41205 6.26489 5.35081 6.12356 5.22832C5.98223 5.10583 5.90741 4.95273 5.8991 4.769C5.8991 4.57846 5.97392 4.42195 6.12356 4.29947C6.27321 4.17698 6.46026 4.11574 6.68472 4.11574C6.77617 4.11574 6.85931 4.12595 6.93413 4.14636C7.00895 4.16678 7.07546 4.19059 7.13365 4.21781C7.19185 4.24503 7.24173 4.28246 7.2833 4.33009C7.32486 4.37772 7.35812 4.41855 7.38306 4.45258C7.408 4.4866 7.42462 4.52062 7.43294 4.55465C7.44125 4.58867 7.45372 4.61589 7.47035 4.6363L7.48282 4.67713C7.85693 4.33009 8.04398 3.90819 8.04398 3.41145C8.04398 3.03718 7.82367 2.75479 7.38306 2.56425C7.10871 2.44857 6.68888 2.39073 6.12356 2.39073H5.87416C5.08438 2.39073 4.55647 2.60848 4.29044 3.04399C4.24056 3.14606 4.21146 3.35361 4.20315 3.66663L4.19068 4.09533L4.16574 4.12595C4.1408 4.13956 4.07429 4.14636 3.96621 4.14636C3.81657 4.14636 3.74175 4.11914 3.74175 4.0647C3.74175 3.87417 3.72096 3.67683 3.6794 3.47269C3.63783 3.24133 3.46325 3.03038 3.15565 2.83985C2.84805 2.64931 2.38249 2.55405 1.75898 2.55405H1.65922C1.18535 2.55405 0.856967 2.67313 0.674071 2.9113C0.557682 3.061 0.499487 3.22091 0.499487 3.39103C0.499487 3.60878 0.545211 3.80953 0.63666 3.99325C0.728108 4.17698 0.823713 4.30627 0.923475 4.38113C1.02324 4.45598 1.07312 4.4934 1.07312 4.4934V4.46278C1.08143 4.44237 1.08975 4.41515 1.09806 4.38113C1.10637 4.3471 1.12716 4.31308 1.16041 4.27905C1.19366 4.24503 1.22276 4.2042 1.2477 4.15657C1.27264 4.10894 1.31837 4.07491 1.38487 4.0545C1.45138 4.03408 1.51373 4.00686 1.57193 3.97284C1.63012 3.93882 1.71326 3.92861 1.82133 3.94222C2.00423 3.94222 2.16634 3.98985 2.30767 4.08512C2.449 4.18039 2.52382 4.33349 2.53214 4.54444Z" fill="#5EC6C7"/>
</g>
<defs>
<clipPath id="clip0_451_107">
<rect width="200" height="20" fill="white" transform="translate(0 200) rotate(-90)"/>
</clipPath>
</defs>
</svg>
