<svg width="21" height="201" viewBox="0 0 21 201" fill="none" xmlns="http://www.w3.org/2000/svg">
<path d="M9.68879 0.887695C10.5002 0.887695 11.2704 0.953979 11.9995 1.08655C12.7285 1.21911 13.3577 1.37156 13.8868 1.5439C14.416 1.71624 14.9334 1.96149 15.439 2.27964C15.9447 2.5978 16.3386 2.84968 16.6208 3.03527C16.9031 3.22087 17.2088 3.49926 17.5381 3.87044C17.8673 4.24163 18.0672 4.46037 18.1378 4.52665C18.2083 4.59293 18.3318 4.75864 18.5082 5.02377V5.28228V5.36182C18.5082 5.54741 18.4553 5.64021 18.3494 5.64021C18.3142 5.64021 18.1907 5.52753 17.979 5.30216C17.7674 5.0768 17.4557 4.80504 17.0442 4.48688C16.6326 4.16872 16.127 3.84393 15.5272 3.51251C14.9275 3.1811 14.1161 2.90271 13.0931 2.67734C12.07 2.45198 10.9353 2.3393 9.68879 2.3393C8.44231 2.3393 7.31343 2.45198 6.30214 2.67734C5.29085 2.90271 4.47358 3.17447 3.85034 3.49263C3.22711 3.81079 2.72146 4.13558 2.33341 4.46699C1.94535 4.79841 1.63373 5.0768 1.39855 5.30216C1.16336 5.52753 1.03989 5.64021 1.02813 5.64021C0.922301 5.64021 0.869385 5.54078 0.869385 5.34193V5.28228V5.02377L1.29272 4.46699C2.29225 3.22087 3.53872 2.31279 5.03214 1.74275C6.52556 1.17271 8.07778 0.887695 9.68879 0.887695Z" fill="#FF9190"/>
<path d="M8.04846 7.40991C9.23614 7.40991 10.365 7.91367 11.4351 8.92117C12.5052 9.92868 13.0461 11.0621 13.0579 12.3215C13.0579 12.9976 12.7698 13.5941 12.1936 14.1112C12.5464 14.3233 12.7227 14.6282 12.7227 15.0259C12.7227 15.1982 12.6757 15.3507 12.5816 15.4832C12.4876 15.6158 12.37 15.6821 12.2289 15.6821C12.076 15.6821 11.1353 15.4368 9.40665 14.9463C7.67805 14.4558 6.70204 14.204 6.47861 14.1907C6.18463 14.1907 5.9906 14.2371 5.89653 14.3299C5.80246 14.4227 5.74954 14.5619 5.73778 14.7475C5.74954 14.8668 5.80246 14.9994 5.89653 15.1452C6.13171 15.4236 6.69616 15.6953 7.58986 15.9605C7.82504 16.04 7.94851 16.1063 7.96027 16.1593C7.97203 16.1858 7.97791 16.2521 7.97791 16.3582V16.4377C7.97791 16.6896 7.92499 16.8155 7.81916 16.8155C7.7486 16.8155 7.58986 16.7824 7.34291 16.7161C7.09597 16.6498 6.77847 16.5172 6.39042 16.3184C6.00236 16.1195 5.70838 15.9074 5.50848 15.6821C5.35561 15.5097 5.23213 15.2976 5.13806 15.0457C5.11454 14.9397 5.10278 14.7806 5.10278 14.5685C5.10278 14.1178 5.19098 13.74 5.36737 13.4351C5.54375 13.1302 5.72602 12.9313 5.91417 12.8385L6.17875 12.7192C6.19051 12.7059 6.18463 12.6794 6.16111 12.6397C6.13759 12.6132 6.11407 12.5866 6.09056 12.5601C5.43204 11.778 5.10278 10.9826 5.10278 10.1739C5.10278 9.44481 5.33797 8.80186 5.80834 8.24508C6.2787 7.6883 7.02541 7.40991 8.04846 7.40991ZM11.0647 13.7333C11.1353 13.7333 11.2646 13.7002 11.4528 13.6339C11.6409 13.5676 11.8467 13.4152 12.0701 13.1766C12.2935 12.9379 12.4111 12.633 12.4229 12.2619C12.4229 11.7979 12.2406 11.3538 11.8761 10.9296C11.5116 10.5053 11.0353 10.1739 10.4473 9.93531C9.51837 9.55086 8.55411 9.2791 7.55458 9.12002C7.5193 9.12002 7.45462 9.12002 7.36055 9.12002C7.26648 9.12002 7.19592 9.11339 7.14889 9.10014C6.61972 9.10014 6.25519 9.21945 6.05528 9.45807C5.85537 9.69669 5.74954 9.9817 5.73778 10.3131C5.73778 10.8169 5.93181 11.314 6.31986 11.8045C6.70791 12.295 7.00777 12.5866 7.21944 12.6794C7.26648 12.7059 7.89559 12.8849 9.10679 13.2163C10.318 13.5477 10.9706 13.7201 11.0647 13.7333Z" fill="#FF9190"/>
<path d="M9.45967 22.8049C9.45967 22.8049 9.5361 22.8049 9.68897 22.8049C9.84184 22.8049 9.95943 22.8977 10.0417 23.0833V29.0289H12.6876L15.3334 29.0488C15.4863 29.1814 15.5627 29.3073 15.5627 29.4266C15.5627 29.599 15.4745 29.7315 15.2981 29.8243H10.0417L10.0417 35.7501C9.94767 35.9489 9.83008 36.0483 9.68897 36.0483C9.54786 36.0483 9.43027 35.9489 9.33619 35.7501L9.33619 29.8243H4.07983C3.9152 29.7183 3.83289 29.599 3.83289 29.4664V29.4266V29.3869C3.83289 29.2278 3.9152 29.1085 4.07983 29.0289H9.33619V23.0833C9.41851 22.8977 9.5361 22.8049 9.68897 22.8049H9.45967Z" fill="#FF9190"/>
<path d="M16.6913 43.0318C16.8089 43.0318 16.9441 43.0583 17.097 43.1114C17.2499 43.1644 17.3263 43.2439 17.3263 43.35C17.3263 43.3632 17.3557 43.8405 17.4145 44.7817C17.4733 45.7229 17.5086 46.2068 17.5203 46.2333C17.5203 46.3924 17.4674 46.4719 17.3616 46.4719C17.2557 46.4719 16.415 46.2466 14.8392 45.7958C14.4394 45.6898 14.0278 45.5771 13.6045 45.4578C13.1812 45.3385 12.8637 45.239 12.652 45.1595L12.3169 45.08C12.2816 45.08 12.2992 45.1197 12.3698 45.1993C12.8402 45.8489 13.0753 46.5183 13.0753 47.2077C13.0753 48.0296 12.8049 48.6924 12.264 49.1962C11.723 49.6999 11.041 49.9584 10.2179 49.9717C8.91258 49.9717 7.73078 49.448 6.67245 48.4008C5.61413 47.3535 5.08496 46.2267 5.08496 45.0203C5.08496 44.3575 5.30839 43.7543 5.75524 43.2108C6.20209 42.6673 6.92528 42.3889 7.92481 42.3756H8.08356C8.3305 42.3756 8.67152 42.4286 9.10661 42.5347C9.5417 42.6407 10.7 42.9655 12.5815 43.5091C14.898 44.1719 16.1269 44.5033 16.268 44.5033C16.4091 44.5033 16.4914 44.2514 16.5149 43.7477C16.5149 43.6814 16.5149 43.6284 16.5149 43.5886V43.4892C16.5149 43.3566 16.5149 43.2704 16.5149 43.2307C16.5149 43.1909 16.5325 43.1445 16.5678 43.0915C16.6031 43.0384 16.6443 43.0186 16.6913 43.0318ZM11.0116 48.2616H11.1174C11.9876 48.2616 12.4227 47.8572 12.4227 47.0486C12.4227 46.8232 12.3757 46.5912 12.2816 46.3526C12.1875 46.114 12.064 45.8953 11.9112 45.6964C11.7583 45.4976 11.6172 45.3252 11.4878 45.1794C11.3585 45.0336 11.2291 44.9143 11.0998 44.8215L10.9587 44.7022L9.44175 44.2846C8.43045 43.9929 7.71314 43.8471 7.28981 43.8471C6.72537 43.8471 6.30204 44.0062 6.01982 44.3243C5.83167 44.5364 5.7376 44.8016 5.7376 45.1197C5.7376 45.5572 5.92574 46.0013 6.30204 46.452C6.5725 46.7835 6.90176 47.0486 7.28981 47.2474C7.67787 47.4463 8.29522 47.665 9.14189 47.9036C9.98855 48.1423 10.6118 48.2616 11.0116 48.2616Z" fill="#FF9190"/>
<path d="M18.4907 51.3041L18.5083 51.3837C18.5083 51.45 18.5083 51.5162 18.5083 51.5825V51.8211L18.085 52.3779C17.0855 53.6241 15.839 54.5321 14.3456 55.1022C12.8521 55.6722 11.2999 55.9572 9.68891 55.9572C8.88929 55.9572 8.11906 55.8909 7.37823 55.7584C6.6374 55.6258 6.00828 55.4734 5.49088 55.301C4.97347 55.1287 4.45606 54.8834 3.93866 54.5653C3.42125 54.2471 3.02732 53.9952 2.75686 53.8096C2.4864 53.6241 2.18654 53.3523 1.85728 52.9944C1.52802 52.6364 1.334 52.4243 1.2752 52.358C1.2164 52.2918 1.10469 52.1393 0.940062 51.9007C0.904784 51.8609 0.881266 51.8344 0.869507 51.8211L0.869507 51.5825C0.869507 51.4765 0.869507 51.4036 0.869507 51.3638C0.869507 51.324 0.887146 51.2909 0.922423 51.2644C0.957701 51.2379 1.01062 51.218 1.08117 51.2047C1.09293 51.218 1.16937 51.2909 1.31048 51.4234C3.20371 53.4782 5.99652 54.5056 9.68891 54.5056C13.3813 54.5056 16.1741 53.4782 18.0673 51.4234C18.2085 51.2909 18.2849 51.218 18.2967 51.2047C18.3907 51.2047 18.4554 51.2379 18.4907 51.3041Z" fill="#FF9190"/>
<path d="M9.68879 59.7155C10.5002 59.7155 11.2704 59.7817 11.9995 59.9143C12.7285 60.0469 13.3577 60.1993 13.8868 60.3717C14.416 60.544 14.9334 60.7892 15.439 61.1074C15.9447 61.4256 16.3386 61.6774 16.6208 61.863C16.9031 62.0486 17.2088 62.327 17.5381 62.6982C17.8673 63.0694 18.0672 63.2881 18.1378 63.3544C18.2083 63.4207 18.3318 63.5864 18.5082 63.8515V64.11V64.1896C18.5082 64.3752 18.4553 64.468 18.3494 64.468C18.3142 64.468 18.1907 64.3553 17.979 64.1299C17.7674 63.9046 17.4557 63.6328 17.0442 63.3146C16.6326 62.9965 16.127 62.6717 15.5272 62.3403C14.9275 62.0089 14.1161 61.7305 13.0931 61.5051C12.07 61.2797 10.9353 61.1671 9.68879 61.1671C8.44231 61.1671 7.31343 61.2797 6.30214 61.5051C5.29085 61.7305 4.47358 62.0022 3.85034 62.3204C3.22711 62.6385 2.72146 62.9633 2.33341 63.2948C1.94535 63.6262 1.63373 63.9046 1.39855 64.1299C1.16336 64.3553 1.03989 64.468 1.02813 64.468C0.922301 64.468 0.869385 64.3685 0.869385 64.1697L0.869385 64.11V63.8515L1.29272 63.2948C2.29225 62.0486 3.53872 61.1405 5.03214 60.5705C6.52556 60.0005 8.07778 59.7155 9.68879 59.7155Z" fill="#FF9190"/>
<path d="M8.04834 66.2378C9.23602 66.2378 10.3649 66.7415 11.435 67.7491C12.5051 68.7566 13.046 69.89 13.0578 71.1494C13.0578 71.8255 12.7697 72.422 12.1935 72.939C12.5462 73.1511 12.7226 73.456 12.7226 73.8537C12.7226 74.0261 12.6756 74.1785 12.5815 74.3111C12.4874 74.4437 12.3699 74.5099 12.2287 74.5099C12.0759 74.5099 11.1351 74.2647 9.40653 73.7742C7.67793 73.2837 6.70191 73.0318 6.47849 73.0186C6.18451 73.0186 5.99048 73.065 5.89641 73.1578C5.80233 73.2506 5.74942 73.3898 5.73766 73.5754C5.74942 73.6947 5.80233 73.8272 5.89641 73.9731C6.13159 74.2514 6.69603 74.5232 7.58973 74.7883C7.82492 74.8679 7.94839 74.9342 7.96015 74.9872C7.97191 75.0137 7.97779 75.08 7.97779 75.186V75.2656C7.97779 75.5175 7.92487 75.6434 7.81904 75.6434C7.74848 75.6434 7.58973 75.6103 7.34279 75.544C7.09585 75.4777 6.77835 75.3451 6.39029 75.1463C6.00224 74.9474 5.70826 74.7353 5.50835 74.5099C5.35548 74.3376 5.23201 74.1255 5.13794 73.8736C5.11442 73.7676 5.10266 73.6085 5.10266 73.3964C5.10266 72.9457 5.19086 72.5678 5.36724 72.2629C5.54363 71.958 5.7259 71.7592 5.91405 71.6664L6.17863 71.5471C6.19039 71.5338 6.18451 71.5073 6.16099 71.4675C6.13747 71.441 6.11395 71.4145 6.09043 71.388C5.43192 70.6059 5.10266 69.8105 5.10266 69.0018C5.10266 68.2727 5.33785 67.6297 5.80821 67.073C6.27858 66.5162 7.02529 66.2378 8.04834 66.2378ZM11.0646 72.5612C11.1351 72.5612 11.2645 72.5281 11.4526 72.4618C11.6408 72.3955 11.8466 72.2431 12.07 72.0044C12.2934 71.7658 12.411 71.4609 12.4228 71.0897C12.4228 70.6257 12.2405 70.1816 11.876 69.7574C11.5114 69.3332 11.0352 69.0018 10.4472 68.7632C9.51824 68.3787 8.55399 68.107 7.55446 67.9479C7.51918 67.9479 7.4545 67.9479 7.36043 67.9479C7.26636 67.9479 7.1958 67.9413 7.14876 67.928C6.6196 67.928 6.25506 68.0473 6.05516 68.2859C5.85525 68.5246 5.74942 68.8096 5.73766 69.141C5.73766 69.6448 5.93169 70.1419 6.31974 70.6324C6.70779 71.1229 7.00765 71.4145 7.21932 71.5073C7.26636 71.5338 7.89547 71.7128 9.10667 72.0442C10.3179 72.3756 10.9705 72.548 11.0646 72.5612Z" fill="#FF9190"/>
<path d="M9.45953 82.1914C9.45953 82.1914 9.53597 82.1914 9.68884 82.1914C9.84171 82.1914 9.9593 82.2842 10.0416 82.4698L10.0416 94.023C9.94754 94.2218 9.82995 94.3213 9.68884 94.3213C9.54773 94.3213 9.43013 94.2218 9.33606 94.023L9.33606 82.4698C9.41837 82.2842 9.53597 82.1914 9.68884 82.1914H9.45953Z" fill="#FF9190"/>
<path d="M16.6913 101.862C16.8089 101.862 16.9441 101.888 17.097 101.941C17.2499 101.994 17.3263 102.074 17.3263 102.18C17.3263 102.193 17.3557 102.67 17.4145 103.611C17.4733 104.553 17.5086 105.036 17.5203 105.063C17.5203 105.222 17.4674 105.302 17.3616 105.302C17.2557 105.302 16.415 105.076 14.8392 104.626C14.4394 104.519 14.0278 104.407 13.6045 104.287C13.1812 104.168 12.8637 104.069 12.652 103.989L12.3169 103.91C12.2816 103.91 12.2992 103.949 12.3698 104.029C12.8402 104.679 13.0753 105.348 13.0753 106.037C13.0753 106.859 12.8049 107.522 12.264 108.026C11.723 108.53 11.041 108.788 10.2179 108.801C8.91258 108.801 7.73078 108.278 6.67245 107.23C5.61413 106.183 5.08496 105.056 5.08496 103.85C5.08496 103.187 5.30839 102.584 5.75524 102.04C6.20209 101.497 6.92528 101.219 7.92481 101.205H8.08356C8.3305 101.205 8.67152 101.258 9.10661 101.364C9.5417 101.47 10.7 101.795 12.5815 102.339C14.898 103.002 16.1269 103.333 16.268 103.333C16.4091 103.333 16.4914 103.081 16.5149 102.577C16.5149 102.511 16.5149 102.458 16.5149 102.418V102.319C16.5149 102.186 16.5149 102.1 16.5149 102.06C16.5149 102.021 16.5325 101.974 16.5678 101.921C16.6031 101.868 16.6443 101.848 16.6913 101.862ZM11.0116 107.091H11.1174C11.9876 107.091 12.4227 106.687 12.4227 105.878C12.4227 105.653 12.3757 105.421 12.2816 105.182C12.1875 104.944 12.064 104.725 11.9112 104.526C11.7583 104.327 11.6172 104.155 11.4878 104.009C11.3585 103.863 11.2291 103.744 11.0998 103.651L10.9587 103.532L9.44175 103.114C8.43045 102.823 7.71314 102.677 7.28981 102.677C6.72537 102.677 6.30204 102.836 6.01982 103.154C5.83167 103.366 5.7376 103.631 5.7376 103.949C5.7376 104.387 5.92574 104.831 6.30204 105.282C6.5725 105.613 6.90176 105.878 7.28981 106.077C7.67787 106.276 8.29522 106.495 9.14189 106.733C9.98855 106.972 10.6118 107.091 11.0116 107.091Z" fill="#FF9190"/>
<path d="M18.4906 110.134L18.5082 110.213C18.5082 110.28 18.5082 110.346 18.5082 110.412V110.651L18.0849 111.208C17.0853 112.454 15.8389 113.362 14.3454 113.932C12.852 114.502 11.2998 114.787 9.68879 114.787C8.88916 114.787 8.11894 114.721 7.37811 114.588C6.63728 114.456 6.00816 114.303 5.49075 114.131C4.97335 113.958 4.45594 113.713 3.93854 113.395C3.42113 113.077 3.0272 112.825 2.75674 112.639C2.48628 112.454 2.18642 112.182 1.85716 111.824C1.5279 111.466 1.33387 111.254 1.27508 111.188C1.21628 111.121 1.10457 110.969 0.93994 110.73C0.904662 110.691 0.881144 110.664 0.869385 110.651L0.869385 110.412C0.869385 110.306 0.869385 110.233 0.869385 110.194C0.869385 110.154 0.887024 110.121 0.922301 110.094C0.957579 110.068 1.0105 110.048 1.08105 110.034C1.09281 110.048 1.16924 110.121 1.31036 110.253C3.20359 112.308 5.9964 113.335 9.68879 113.335C13.3812 113.335 16.174 112.308 18.0672 110.253C18.2083 110.121 18.2848 110.048 18.2965 110.034C18.3906 110.034 18.4553 110.068 18.4906 110.134Z" fill="#FF9190"/>
<path d="M11.3997 123.314C11.5526 123.314 11.6702 123.406 11.7525 123.592L11.7525 136.259C11.6584 136.458 11.5408 136.557 11.3997 136.557C11.2704 136.557 11.1586 136.464 11.0646 136.279L11.0469 129.955V123.632C11.1057 123.42 11.2233 123.314 11.3997 123.314ZM7.97778 123.314C8.15416 123.314 8.27176 123.42 8.33055 123.632L8.33055 136.279C8.21296 136.464 8.09537 136.557 7.97778 136.557C7.82491 136.557 7.70731 136.458 7.625 136.259L7.625 123.592C7.70731 123.406 7.82491 123.314 7.97778 123.314Z" fill="#FF9190"/>
<path d="M8.04846 143.849C9.23614 143.849 10.365 144.353 11.4351 145.36C12.5052 146.368 13.0461 147.501 13.0579 148.761C13.0579 149.437 12.7698 150.033 12.1936 150.55C12.5464 150.762 12.7227 151.067 12.7227 151.465C12.7227 151.637 12.6757 151.79 12.5816 151.922C12.4876 152.055 12.37 152.121 12.2289 152.121C12.076 152.121 11.1353 151.876 9.40665 151.385C7.67805 150.895 6.70204 150.643 6.47861 150.63C6.18463 150.63 5.9906 150.676 5.89653 150.769C5.80246 150.862 5.74954 151.001 5.73778 151.187C5.74954 151.306 5.80246 151.438 5.89653 151.584C6.13171 151.863 6.69616 152.134 7.58986 152.4C7.82504 152.479 7.94851 152.545 7.96027 152.598C7.97203 152.625 7.97791 152.691 7.97791 152.797V152.877C7.97791 153.129 7.92499 153.255 7.81916 153.255C7.7486 153.255 7.58986 153.221 7.34291 153.155C7.09597 153.089 6.77847 152.956 6.39042 152.757C6.00236 152.559 5.70838 152.347 5.50848 152.121C5.35561 151.949 5.23213 151.737 5.13806 151.485C5.11454 151.379 5.10278 151.22 5.10278 151.008C5.10278 150.557 5.19098 150.179 5.36737 149.874C5.54375 149.569 5.72602 149.37 5.91417 149.278L6.17875 149.158C6.19051 149.145 6.18463 149.119 6.16111 149.079C6.13759 149.052 6.11407 149.026 6.09056 148.999C5.43204 148.217 5.10278 147.422 5.10278 146.613C5.10278 145.884 5.33797 145.241 5.80834 144.684C6.2787 144.127 7.02541 143.849 8.04846 143.849ZM11.0647 150.172C11.1353 150.172 11.2646 150.139 11.4528 150.073C11.6409 150.007 11.8467 149.854 12.0701 149.616C12.2935 149.377 12.4111 149.072 12.4229 148.701C12.4229 148.237 12.2406 147.793 11.8761 147.369C11.5116 146.944 11.0353 146.613 10.4473 146.374C9.51837 145.99 8.55411 145.718 7.55458 145.559C7.5193 145.559 7.45462 145.559 7.36055 145.559C7.26648 145.559 7.19592 145.552 7.14889 145.539C6.61972 145.539 6.25519 145.659 6.05528 145.897C5.85537 146.136 5.74954 146.421 5.73778 146.752C5.73778 147.256 5.93181 147.753 6.31986 148.244C6.70791 148.734 7.00777 149.026 7.21944 149.119C7.26648 149.145 7.89559 149.324 9.10679 149.655C10.318 149.987 10.9706 150.159 11.0647 150.172Z" fill="#FF9190"/>
<path d="M17.9139 155.244C17.9139 154.991 17.9887 154.79 18.1383 154.64C18.288 154.49 18.4709 154.415 18.687 154.415C19.2773 154.415 19.7886 154.663 20.2209 155.16C20.6533 155.657 20.8694 156.275 20.8694 157.016C20.8694 157.869 20.6366 158.581 20.1711 159.153C19.7055 159.724 19.1027 160.015 18.3628 160.024C18.0053 160.024 17.6645 159.931 17.3402 159.743C17.016 159.556 16.7333 159.331 16.4922 159.068C16.2511 158.806 15.9435 158.431 15.5694 157.944C15.3117 157.606 14.9292 157.138 14.4221 156.538L13.7237 155.708L13.7113 156.777C13.7113 158.248 13.732 159.031 13.7736 159.125C13.7902 159.19 14.1602 159.303 14.8835 159.462H14.9209V160.024H14.8835C14.8586 160.015 14.4803 159.954 13.7487 159.842C13.0171 159.729 12.6346 159.659 12.6014 159.631H12.564V154.415H12.8009H12.9506C13.0088 154.415 13.0711 154.443 13.1376 154.499C13.2041 154.556 13.3496 154.696 13.5741 154.921C13.8401 155.193 14.0729 155.427 14.2724 155.624C14.3556 155.708 14.5094 155.868 14.7339 156.102C14.9583 156.336 15.1121 156.496 15.1953 156.58C15.2784 156.664 15.4156 156.8 15.6068 156.988C15.798 157.175 15.9394 157.306 16.0308 157.381C16.1223 157.456 16.247 157.564 16.4049 157.705C16.5629 157.845 16.6959 157.944 16.804 158C16.9121 158.056 17.0326 158.126 17.1656 158.211C17.2987 158.295 17.4317 158.356 17.5647 158.394C17.6977 158.431 17.8224 158.464 17.9388 158.492C18.0552 158.52 18.1924 158.534 18.3503 158.534C18.8741 158.534 19.3272 158.375 19.7096 158.056C20.0921 157.737 20.2833 157.283 20.2833 156.692C20.2833 156.383 20.2126 156.111 20.0713 155.877C19.93 155.643 19.7928 155.479 19.6598 155.385C19.5267 155.291 19.4478 155.244 19.4228 155.244C19.4145 155.244 19.4103 155.268 19.4103 155.315C19.4103 155.483 19.3521 155.657 19.2358 155.835C19.1194 156.013 18.9281 156.102 18.6621 156.102C18.4543 156.102 18.2797 156.027 18.1383 155.877C17.997 155.727 17.9222 155.516 17.9139 155.244Z" fill="#FF9190"/>
<path d="M9.45953 167.826C9.45953 167.826 9.53597 167.826 9.68884 167.826C9.84171 167.826 9.9593 167.919 10.0416 168.105L10.0416 179.658C9.94754 179.857 9.82995 179.956 9.68884 179.956C9.54773 179.956 9.43013 179.857 9.33606 179.658L9.33606 168.105C9.41837 167.919 9.53597 167.826 9.68884 167.826H9.45953Z" fill="#FF9190"/>
<path d="M16.6914 187.496C16.809 187.496 16.9442 187.523 17.0971 187.576C17.25 187.629 17.3264 187.708 17.3264 187.814C17.3264 187.828 17.3558 188.305 17.4146 189.246C17.4734 190.187 17.5087 190.671 17.5204 190.698C17.5204 190.857 17.4675 190.936 17.3617 190.936C17.2559 190.936 16.4151 190.711 14.8393 190.26C14.4395 190.154 14.028 190.042 13.6046 189.922C13.1813 189.803 12.8638 189.704 12.6521 189.624L12.317 189.544C12.2817 189.544 12.2994 189.584 12.3699 189.664C12.8403 190.313 13.0755 190.983 13.0755 191.672C13.0755 192.494 12.805 193.157 12.2641 193.661C11.7232 194.164 11.0411 194.423 10.218 194.436C8.9127 194.436 7.7309 193.913 6.67258 192.865C5.61425 191.818 5.08508 190.691 5.08508 189.485C5.08508 188.822 5.30851 188.219 5.75536 187.675C6.20221 187.132 6.9254 186.853 7.92493 186.84H8.08368C8.33062 186.84 8.67164 186.893 9.10673 186.999C9.54182 187.105 10.7001 187.43 12.5816 187.974C14.8981 188.636 16.127 188.968 16.2681 188.968C16.4092 188.968 16.4915 188.716 16.515 188.212C16.515 188.146 16.515 188.093 16.515 188.053V187.954C16.515 187.821 16.515 187.735 16.515 187.695C16.515 187.655 16.5327 187.609 16.5679 187.556C16.6032 187.503 16.6444 187.483 16.6914 187.496ZM11.0117 192.726H11.1176C11.9877 192.726 12.4228 192.322 12.4228 191.513C12.4228 191.288 12.3758 191.056 12.2817 190.817C12.1876 190.578 12.0642 190.36 11.9113 190.161C11.7584 189.962 11.6173 189.79 11.488 189.644C11.3586 189.498 11.2293 189.379 11.0999 189.286L10.9588 189.167L9.44187 188.749C8.43058 188.457 7.71327 188.312 7.28993 188.312C6.72549 188.312 6.30216 188.471 6.01994 188.789C5.83179 189.001 5.73772 189.266 5.73772 189.584C5.73772 190.022 5.92587 190.466 6.30216 190.917C6.57262 191.248 6.90188 191.513 7.28993 191.712C7.67799 191.911 8.29535 192.129 9.14201 192.368C9.98867 192.607 10.6119 192.726 11.0117 192.726Z" fill="#FF9190"/>
<path d="M17.9137 196.108C17.9137 195.855 17.9886 195.653 18.1382 195.503C18.2879 195.353 18.4708 195.278 18.6869 195.278C19.2772 195.278 19.7885 195.527 20.2208 196.023C20.6531 196.52 20.8693 197.139 20.8693 197.879C20.8693 198.732 20.6365 199.444 20.1709 200.016C19.7054 200.588 19.1026 200.878 18.3627 200.888C18.0052 200.888 17.6643 200.794 17.3401 200.606C17.0159 200.419 16.7332 200.194 16.4921 199.932C16.251 199.669 15.9434 199.294 15.5693 198.807C15.3115 198.47 14.9291 198.001 14.422 197.401L13.7236 196.572L13.7111 197.64C13.7111 199.112 13.7319 199.894 13.7735 199.988C13.7901 200.053 14.1601 200.166 14.8834 200.325H14.9208V200.888H14.8834C14.8584 200.878 14.4802 200.817 13.7486 200.705C13.0169 200.592 12.6345 200.522 12.6013 200.494H12.5638V195.278H12.8008H12.9504C13.0086 195.278 13.071 195.306 13.1375 195.363C13.204 195.419 13.3495 195.559 13.574 195.784C13.84 196.056 14.0728 196.29 14.2723 196.487C14.3555 196.572 14.5093 196.731 14.7337 196.965C14.9582 197.2 15.112 197.359 15.1951 197.443C15.2783 197.528 15.4155 197.663 15.6067 197.851C15.7979 198.038 15.9392 198.17 16.0307 198.245C16.1221 198.32 16.2468 198.427 16.4048 198.568C16.5628 198.709 16.6958 198.807 16.8039 198.863C16.9119 198.919 17.0325 198.99 17.1655 199.074C17.2985 199.158 17.4315 199.219 17.5646 199.257C17.6976 199.294 17.8223 199.327 17.9387 199.355C18.0551 199.383 18.1923 199.397 18.3502 199.397C18.874 199.397 19.3271 199.238 19.7095 198.919C20.092 198.601 20.2832 198.146 20.2832 197.556C20.2832 197.246 20.2125 196.975 20.0712 196.74C19.9298 196.506 19.7927 196.342 19.6596 196.248C19.5266 196.155 19.4476 196.108 19.4227 196.108C19.4144 196.108 19.4102 196.131 19.4102 196.178C19.4102 196.347 19.352 196.52 19.2356 196.698C19.1192 196.876 18.928 196.965 18.662 196.965C18.4541 196.965 18.2796 196.89 18.1382 196.74C17.9969 196.59 17.9221 196.379 17.9137 196.108Z" fill="#FF9190"/>
</svg>
